<?xml version="1.0" encoding="UTF-8"?>
<svg id="Layer_1" data-name="Layer 1" xmlns="http://www.w3.org/2000/svg" viewBox="0 0 153.72 46.9">
  <defs>
    <style>
      .cls-1 {
        fill: #fff;
      }

      .cls-2 {
        fill: #f3c31b;
      }
    </style>
  </defs>
  <path class="cls-1" d="m15.81,46.9v-21.39h7.18l1.08-8.34h-8.26v-5.32c0-2.41.67-4.06,4.13-4.06h4.41V.33c-.76-.1-3.38-.33-6.43-.33C11.56,0,7.2,3.88,7.2,11.02v6.15H0v8.34h7.2v21.39h8.61Z"/>
  <g>
    <path class="cls-1" d="m33.72,4.84v20.92h3.02v-8.91h8.47v-2.45h-8.47v-7.11h9.93v-2.45h-12.94Zm24.5,20.92v-9.44c0-.84-.11-1.6-.34-2.29-.23-.69-.56-1.28-1.01-1.77-.44-.49-.99-.87-1.64-1.14-.65-.27-1.39-.41-2.23-.41-1.16,0-2.21.19-3.17.58-.96.39-1.85.97-2.67,1.75l.5.9c.1.14.21.26.34.36s.29.15.49.15c.23,0,.47-.08.7-.23.23-.16.5-.33.81-.52.31-.19.67-.36,1.09-.52.42-.16.95-.24,1.58-.24.93,0,1.64.28,2.12.85.48.57.72,1.41.72,2.53v1.11c-1.68.04-3.1.19-4.25.47-1.15.27-2.08.62-2.8,1.04-.71.42-1.23.9-1.55,1.44-.32.53-.47,1.09-.47,1.68,0,.67.11,1.25.33,1.74.22.49.51.9.89,1.23.37.33.81.58,1.32.74.51.16,1.05.24,1.63.24s1.07-.05,1.53-.15c.46-.1.89-.24,1.29-.42.4-.18.79-.42,1.16-.69.37-.28.74-.59,1.12-.94l.31,1.33c.09.25.2.42.35.51.15.09.35.13.63.13h1.22Zm-7.7-1.83c-.29-.08-.54-.21-.75-.38-.21-.17-.38-.39-.5-.66-.12-.27-.18-.6-.18-.98s.12-.75.35-1.07c.23-.33.6-.6,1.11-.84.51-.23,1.17-.42,1.99-.57.82-.15,1.81-.24,2.97-.28v2.97c-.29.3-.58.57-.87.81-.29.24-.6.44-.93.6-.33.17-.68.29-1.05.38-.37.09-.78.13-1.22.13-.33,0-.64-.04-.93-.12h0Z"/>
    <path class="cls-1" d="m73.16,12.67c-.61-.61-1.32-1.09-2.12-1.43-.8-.34-1.73-.51-2.79-.51-1.13,0-2.13.19-3,.57-.87.38-1.6.91-2.19,1.59-.59.68-1.04,1.48-1.35,2.41-.31.93-.46,1.94-.46,3.04,0,1.21.17,2.28.5,3.23.34.95.8,1.75,1.38,2.4.59.65,1.28,1.15,2.08,1.49.8.34,1.66.51,2.58.51.53,0,1.06-.04,1.57-.13.51-.09,1.01-.22,1.49-.41.48-.18.92-.42,1.34-.71.42-.29.8-.64,1.14-1.05l-.79-1.01c-.12-.17-.29-.26-.52-.26-.18,0-.37.08-.55.23-.18.15-.4.31-.66.49-.26.17-.59.34-.99.49-.4.15-.91.23-1.53.23s-1.22-.12-1.74-.36c-.52-.24-.96-.6-1.33-1.06s-.65-1.04-.85-1.72c-.2-.68-.3-1.46-.3-2.33s.09-1.6.28-2.27c.18-.67.46-1.24.82-1.72.36-.48.82-.84,1.36-1.09.54-.25,1.17-.38,1.88-.38.53,0,.99.06,1.36.18.37.12.68.25.93.39.25.14.47.27.64.39.17.12.34.18.5.18.15,0,.26-.03.34-.09.08-.06.16-.14.24-.25l.73-1.02h0Zm6.06-1.37c-.86.38-1.59.9-2.19,1.55-.6.66-1.06,1.43-1.38,2.32-.32.89-.48,1.85-.48,2.88,0,1.28.18,2.42.53,3.4.35.99.85,1.81,1.48,2.48.63.67,1.38,1.17,2.25,1.52.87.34,1.81.52,2.83.52.53,0,1.08-.04,1.63-.13.55-.09,1.08-.23,1.6-.42.51-.19,1-.43,1.44-.71.45-.29.84-.63,1.18-1.04l-.79-1.01c-.11-.17-.28-.26-.51-.26-.17,0-.38.07-.61.22s-.52.31-.85.48c-.34.17-.73.34-1.2.48-.46.15-1.01.22-1.65.22-.68,0-1.3-.11-1.85-.33-.55-.22-1.03-.55-1.42-.99-.39-.44-.7-1-.93-1.67-.23-.67-.36-1.46-.39-2.36h9.77c.25,0,.42-.07.52-.22.09-.15.14-.43.14-.86,0-1.06-.16-2-.47-2.82-.31-.82-.74-1.51-1.3-2.08-.55-.56-1.21-.99-1.97-1.29-.76-.3-1.58-.44-2.48-.44-1.08,0-2.05.19-2.91.57h0Zm4.51,1.76c.46.2.84.47,1.16.82.32.35.56.77.72,1.25.17.49.25,1.02.25,1.6h-7.86c.17-1.24.61-2.22,1.3-2.92.69-.7,1.65-1.06,2.86-1.06.58,0,1.1.1,1.56.3h0Zm9.5,12.7c.38,0,.61-.19.7-.58l.13-1.27c.5.64,1.07,1.14,1.73,1.51.66.36,1.47.55,2.44.55s1.86-.19,2.65-.58c.78-.38,1.45-.93,2-1.63.55-.7.97-1.54,1.27-2.52.3-.98.44-2.07.44-3.26,0-1.12-.13-2.13-.39-3.02-.26-.9-.63-1.66-1.11-2.28-.49-.62-1.08-1.1-1.77-1.44-.69-.34-1.47-.5-2.34-.5-1,0-1.89.21-2.67.63-.78.42-1.48.98-2.09,1.69V4.26h-2.77v21.5h1.79Zm7.54-11.58c.64.83.95,2.13.95,3.9,0,1.92-.36,3.36-1.08,4.31-.72.95-1.75,1.43-3.1,1.43-.65,0-1.25-.12-1.81-.37-.55-.25-1.06-.68-1.53-1.29v-7.07c.52-.69,1.09-1.22,1.7-1.6.61-.37,1.32-.56,2.15-.56,1.18,0,2.08.42,2.72,1.25h0Zm10.36-2.92c-.88.35-1.63.86-2.24,1.52-.62.66-1.09,1.46-1.42,2.4-.33.94-.5,1.99-.5,3.16s.17,2.22.5,3.16c.33.94.8,1.74,1.42,2.41.62.66,1.37,1.17,2.24,1.52.88.35,1.86.53,2.95.53s2.07-.18,2.94-.53c.87-.35,1.62-.86,2.23-1.52.61-.66,1.08-1.46,1.41-2.41.33-.94.5-2,.5-3.16s-.17-2.22-.5-3.16c-.33-.94-.8-1.74-1.41-2.4-.61-.66-1.36-1.17-2.23-1.52-.87-.35-1.86-.53-2.94-.53s-2.07.18-2.95.53h0Zm-.26,11.11c-.7-.95-1.06-2.29-1.06-4.02s.35-3.06,1.06-4.02c.7-.96,1.78-1.44,3.21-1.44s2.48.48,3.18,1.44c.7.96,1.05,2.3,1.05,4.02s-.35,3.07-1.05,4.02c-.7.95-1.76,1.43-3.18,1.43s-2.51-.48-3.21-1.43h0Zm16.82-11.11c-.88.35-1.63.86-2.24,1.52-.62.66-1.09,1.46-1.42,2.4-.33.94-.5,1.99-.5,3.16s.17,2.22.5,3.16c.33.94.8,1.74,1.42,2.41.62.66,1.37,1.17,2.24,1.52.88.35,1.86.53,2.95.53s2.07-.18,2.94-.53c.87-.35,1.62-.86,2.23-1.52.61-.66,1.08-1.46,1.41-2.41.33-.94.5-2,.5-3.16s-.17-2.22-.5-3.16c-.33-.94-.8-1.74-1.41-2.4-.61-.66-1.36-1.17-2.23-1.52-.87-.35-1.86-.53-2.94-.53s-2.07.18-2.95.53h0Zm-.26,11.11c-.7-.95-1.06-2.29-1.06-4.02s.35-3.06,1.06-4.02c.7-.96,1.78-1.44,3.21-1.44s2.48.48,3.18,1.44c.7.96,1.05,2.3,1.05,4.02s-.35,3.07-1.05,4.02c-.7.95-1.76,1.43-3.18,1.43s-2.51-.48-3.21-1.43h0Zm13.49-18.12v21.5h2.77v-7.03h.76c.29,0,.51.03.65.09.14.06.28.2.43.42l4.68,5.98c.13.2.27.35.44.42.17.08.37.12.59.12h2.48l-5.64-7.27c-.14-.19-.27-.37-.42-.54-.14-.17-.3-.31-.49-.42.32-.19.62-.47.89-.82l5.31-5.74h-2.51c-.25,0-.46.05-.62.14-.16.09-.31.23-.44.4l-4.52,4.93c-.15.17-.29.28-.42.34-.14.06-.3.09-.5.09h-.67V4.26h-2.77Z"/>
  </g>
  <g>
    <path class="cls-2" d="m106.09,42.98l2.44-1.18h.76l2.44,1.18h0l-.34-3.28h0l1.77-2.1h0l-2.86-.76h0l-1.18-2.44h0l-1.18,2.44h0l-2.86.76h0l1.77,2.1h0l-.42,3.28s-.34,0-.34,0Z"/>
    <path class="cls-2" d="m115.91,42.98l2.44-1.18h.76l2.44,1.18h0l-.34-3.28h0l1.77-2.1h0l-2.86-.76h0l-1.18-2.44h0l-1.18,2.44h0l-2.86.76h0l1.77,2.1h0l-.42,3.28h-.34Z"/>
    <path class="cls-2" d="m125.82,42.98l2.44-1.18h.76l2.44,1.18h0l-.34-3.28h0l1.77-2.1h0l-2.86-.76h0l-1.18-2.44h0l-1.18,2.44h0l-2.86.76h0l1.77,2.1h0l-.42,3.28h-.34Z"/>
    <path class="cls-2" d="m135.56,42.98l2.44-1.18h.76l2.44,1.18h0l-.34-3.28h0l1.77-2.1h0l-2.86-.76h0l-1.18-2.44h0l-1.18,2.44h0l-2.86.76h0l1.77,2.1h0l-.42,3.28h-.34Z"/>
    <path class="cls-2" d="m145.3,42.98l2.44-1.18h.76l2.44,1.18h0l-.34-3.28h0l1.77-2.1h0l-2.86-.76h0l-1.18-2.44h0l-1.18,2.44h0l-2.86.76h0l1.77,2.1h0l-.42,3.28h-.34Z"/>
  </g>
  <g>
    <path class="cls-1" d="m33.24,40.27v-1.21l3.67-4.93h1.89l-3.59,4.93-.88-.26h6.12v1.47h-7.21Zm4.19,1.63v-1.63l.06-1.47v-1.45h1.7v4.55h-1.76Z"/>
    <path class="cls-1" d="m42.23,41.99c-.3,0-.55-.1-.76-.31-.21-.2-.32-.46-.32-.78s.11-.57.32-.77.46-.3.76-.3.56.1.77.3.31.45.31.77-.1.58-.31.78c-.21.2-.46.31-.77.31Z"/>
    <path class="cls-1" d="m47.45,42.03c-.71,0-1.33-.15-1.85-.44s-.92-.73-1.21-1.3c-.28-.57-.42-1.27-.42-2.11,0-.9.17-1.66.51-2.28.34-.62.8-1.1,1.4-1.42.6-.33,1.28-.49,2.06-.49.41,0,.81.04,1.19.13.38.09.7.22.98.4l-.67,1.32c-.21-.15-.44-.25-.69-.3-.24-.06-.5-.08-.77-.08-.67,0-1.21.2-1.6.61-.39.41-.59,1.01-.59,1.81,0,.13,0,.28,0,.44,0,.16.02.33.06.49l-.5-.47c.14-.29.32-.53.54-.73.22-.2.49-.34.79-.44.31-.1.65-.15,1.02-.15.5,0,.96.1,1.36.3s.72.48.96.84c.24.36.36.79.36,1.28,0,.53-.13.98-.39,1.37-.26.39-.61.69-1.05.9-.44.21-.94.32-1.49.32Zm-.1-1.34c.25,0,.48-.05.67-.14.2-.09.35-.23.46-.41.11-.18.17-.38.17-.61,0-.36-.12-.64-.36-.85-.24-.21-.56-.32-.96-.32-.27,0-.5.05-.7.15-.2.1-.36.24-.47.41-.11.17-.17.38-.17.61s.06.42.17.59c.11.17.27.31.47.41.2.1.44.15.73.15Z"/>
    <path class="cls-1" d="m50.36,43.01l3.67-10.46h1.54l-3.67,10.46h-1.54Z"/>
    <path class="cls-1" d="m58.16,42.03c-.54,0-1.08-.07-1.6-.22-.53-.14-.98-.35-1.36-.62l.71-1.38c.3.21.64.39,1.03.51s.78.19,1.18.19c.45,0,.81-.09,1.07-.27.26-.18.39-.43.39-.74,0-.2-.05-.38-.16-.53s-.29-.27-.55-.36c-.26-.08-.63-.12-1.1-.12h-1.99l.4-4.38h4.74v1.44h-4.1l.93-.82-.28,3.12-.93-.82h1.64c.77,0,1.39.11,1.86.32s.81.5,1.03.86c.21.36.32.77.32,1.23s-.11.88-.34,1.27c-.23.39-.58.7-1.06.94s-1.09.36-1.83.36Z"/>
    <path class="cls-1" d="m65.76,41.9v-7.78h3.32c1.08,0,1.92.25,2.52.75s.9,1.19.9,2.07c0,.58-.14,1.08-.41,1.49-.27.42-.66.74-1.17.96-.5.22-1.1.33-1.8.33h-2.37l.8-.79v2.95h-1.8Zm1.8-2.76l-.8-.84h2.27c.56,0,.97-.12,1.24-.36.27-.24.41-.57.41-.99s-.14-.76-.41-1c-.27-.24-.69-.35-1.24-.35h-2.27l.8-.86v4.41Zm3.14,2.76l-1.94-2.82h1.92l1.97,2.82h-1.94Z"/>
    <path class="cls-1" d="m75.59,41.99c-.47,0-.87-.08-1.2-.24-.33-.16-.59-.38-.77-.65-.18-.27-.27-.58-.27-.92s.09-.67.26-.93c.17-.27.45-.48.83-.63.38-.15.87-.23,1.48-.23h1.59v1.01h-1.4c-.41,0-.69.07-.84.2-.15.13-.23.3-.23.5,0,.22.09.4.26.53.17.13.41.19.72.19s.55-.07.78-.21c.23-.14.4-.34.5-.61l.27.8c-.13.39-.36.68-.69.88-.33.2-.76.3-1.29.3Zm1.82-.09v-1.17l-.11-.26v-2.09c0-.37-.11-.66-.34-.87-.23-.21-.57-.31-1.04-.31-.32,0-.63.05-.94.15-.31.1-.57.24-.78.41l-.62-1.21c.33-.23.72-.41,1.18-.53.46-.13.93-.19,1.4-.19.91,0,1.62.21,2.12.64.5.43.76,1.1.76,2.01v3.41h-1.62Z"/>
    <path class="cls-1" d="m79.89,37.26v-1.33h4.14v1.33h-4.14Zm3.15,4.73c-.7,0-1.25-.18-1.64-.54s-.59-.89-.59-1.6v-5.24h1.73v5.22c0,.25.07.45.2.58.13.14.31.21.54.21.27,0,.51-.07.7-.22l.47,1.22c-.18.13-.39.22-.64.28-.25.06-.51.09-.77.09Z"/>
    <path class="cls-1" d="m86.3,35.09c-.32,0-.58-.09-.78-.28-.2-.19-.3-.41-.3-.69s.1-.5.3-.69c.2-.18.46-.28.78-.28s.58.09.78.26c.2.17.3.4.3.67,0,.29-.1.53-.29.72-.2.19-.46.28-.78.28Zm-.87,6.81v-5.98h1.73v5.98h-1.73Z"/>
    <path class="cls-1" d="m88.77,41.9v-5.98h1.65v1.66l-.31-.5c.21-.4.52-.71.92-.92.4-.21.86-.32,1.37-.32.48,0,.9.09,1.27.28.38.19.67.48.88.87.21.39.32.89.32,1.49v3.42h-1.73v-3.15c0-.48-.1-.84-.32-1.07-.21-.23-.51-.34-.89-.34-.27,0-.52.06-.74.17-.22.11-.39.29-.51.53-.12.24-.18.54-.18.91v2.95h-1.73Z"/>
    <path class="cls-1" d="m99.04,41.61c-.56,0-1.06-.12-1.5-.36s-.81-.58-1.08-1.01c-.27-.43-.4-.94-.4-1.52s.13-1.09.4-1.53c.27-.43.63-.77,1.08-1,.45-.24.95-.36,1.5-.36.5,0,.95.1,1.33.31.39.2.68.52.9.94s.32.97.32,1.64-.11,1.2-.32,1.63c-.21.43-.51.74-.9.95s-.83.31-1.33.31Zm.27,2.53c-.56,0-1.11-.07-1.63-.21s-.96-.34-1.3-.62l.69-1.24c.25.21.57.37.96.49.39.12.77.18,1.15.18.62,0,1.06-.14,1.34-.41.28-.27.42-.68.42-1.22v-.9l.11-1.5-.02-1.51v-1.29h1.64v4.98c0,1.11-.29,1.93-.87,2.45-.58.53-1.41.79-2.49.79Zm.08-3.95c.3,0,.57-.06.81-.18.24-.12.42-.29.56-.52s.2-.48.2-.77-.07-.55-.2-.77c-.13-.22-.32-.39-.56-.51-.24-.12-.51-.18-.81-.18s-.57.06-.81.18c-.24.12-.42.29-.56.51-.14.22-.21.48-.21.77s.07.54.21.77.32.39.56.52c.24.12.51.18.81.18Z"/>
  </g>
</svg>