<svg version="1.2" xmlns="http://www.w3.org/2000/svg" viewBox="0 0 1647 744" width="1647" height="744">
	<title>New Project</title>
	<style>
		.s0 { fill: #004d71 } 
	</style>
	<g id="White-logo">
		<g id="Folder 1">
			<path id="&lt;Compound Path&gt;" fill-rule="evenodd" class="s0" d="m1152 145.3c-6.4 153.6-233.9 143.5-410.8 143.5v-287c176.9 0 404.4-10.1 410.8 143.5zm-369.5 130.5c144.5 0 329.7-0.7 329.7-130.5 0-129.8-185.2-131-329.7-131z"/>
			<path id="&lt;Path&gt;" class="s0" d="m535.9 289.3h41.1v-287.5h-41.1z"/>
			<path id="&lt;Path&gt;" class="s0" d="m412.5 1.8l-205.3 287.4-205.4-287.4h50.4l170.1 237.5 170.5-237.5z"/>
			<path id="&lt;Path&gt;" class="s0" d="m1234.4 289.2l205.4-287.4 205.4 287.4h-50.4l-170.1-237.4-170.6 237.4z"/>
			<path id="&lt;Compound Path&gt;" class="s0" d="m271.3 435.3h20l31.5 75h0.6l31.2-75h20.1v99.1h-13.5v-81.5h-0.3l-33.4 81.5h-9l-33.5-81.5h-0.2v81.5h-13.5z"/>
			<path id="&lt;Compound Path&gt;" fill-rule="evenodd" class="s0" d="m430.3 435.3h12.1l42.5 99.1h-15.7l-10-24.5h-47.1l-9.9 24.5h-15.6zm24 62.9l-18.4-45.5h-0.3l-18.8 45.5z"/>
			<path id="&lt;Compound Path&gt;" fill-rule="evenodd" class="s0" d="m497.8 435.3h34.8q9.5 0 15.7 2.6 6.2 2.5 9.7 6.5 3.6 4 5 9 1.4 5 1.4 9.6 0 4.8-1.7 9.2-1.7 4.4-4.8 7.9-3.2 3.6-7.7 6.1-4.6 2.4-10.2 3l28.2 45.2h-16.8l-25.2-43.7h-15v43.7h-13.4zm13.4 43.7h17.6q4 0 7.8-0.6 3.9-0.7 6.9-2.3 3-1.7 4.8-4.9 1.8-3.1 1.8-8.2 0-5-1.8-8.2-1.8-3.1-4.8-4.8-3-1.7-6.9-2.3-3.8-0.6-7.8-0.6h-17.6z"/>
			<path id="&lt;Compound Path&gt;" class="s0" d="m583.3 435.3h13.5v99.1h-13.5z"/>
			<path id="&lt;Compound Path&gt;" class="s0" d="m622.2 435.3h17.7l54.6 81.5h0.3v-81.5h13.4v99.1h-17.1l-55.1-81.5h-0.3v81.5h-13.5z"/>
			<path id="&lt;Compound Path&gt;" fill-rule="evenodd" class="s0" d="m764.8 435.3h12.2l42.4 99.1h-15.7l-9.9-24.5h-47.2l-9.8 24.5h-15.7zm24.1 62.9l-18.5-45.5h-0.3l-18.7 45.5z"/>
			<path id="&lt;Compound Path&gt;" fill-rule="evenodd" class="s0" d="m871.2 435.3h34.9q9.5 0 15.7 2.6 6.1 2.5 9.7 6.5 3.6 4 5 9 1.4 5 1.4 9.6 0 4.8-1.7 9.2-1.7 4.4-4.8 7.9-3.2 3.6-7.7 6.1-4.6 2.4-10.2 3l28.2 45.2h-16.8l-25.2-43.7h-15v43.7h-13.5zm13.5 43.7h17.6q3.9 0 7.8-0.6 3.8-0.7 6.8-2.3 3.1-1.7 4.9-4.9 1.8-3.1 1.8-8.2 0-5-1.8-8.2-1.8-3.1-4.9-4.8-3-1.7-6.8-2.3-3.9-0.6-7.8-0.6h-17.6z"/>
			<path id="&lt;Compound Path&gt;" class="s0" d="m956.8 435.3h64v12.6h-50.6v29.5h47.1v12.6h-47.1v31.8h53.1v12.6h-66.5z"/>
			<path id="&lt;Compound Path&gt;" class="s0" d="m1045.3 513.7q3.6 5.4 9.3 8 5.7 2.6 11.7 2.6 3.4 0 6.9-1 3.5-1.1 6.3-3.2 2.9-2.1 4.7-5.2 1.8-3 1.8-7.1 0-5.7-3.6-8.8-3.6-3-9-5-5.4-2-11.8-3.9-6.4-1.9-11.8-5.3-5.4-3.3-9-9-3.6-5.7-3.6-15.3 0-4.4 1.9-9.3 1.8-4.9 5.9-8.9 4.1-4.1 10.4-6.8 6.4-2.8 15.4-2.8 8.1 0 15.5 2.3 7.4 2.2 13 9.1l-10.9 9.9q-2.5-3.9-7.1-6.3-4.6-2.4-10.5-2.4-5.6 0-9.3 1.5-3.7 1.5-6 3.8-2.2 2.3-3.1 5-1 2.6-0.9 4.9-0.1 6.3 3.6 9.6 3.6 3.4 9 5.5 5.4 2.1 11.8 3.8 6.4 1.7 11.7 4.7 5.4 3 9.1 8.1 3.6 5.1 3.6 14.1 0 7.1-2.7 12.8-2.7 5.8-7.4 9.7-4.6 3.9-10.9 6-6.3 2.1-13.4 2.1-9.6 0-18.1-3.3-8.5-3.4-13.6-10.4z"/>
			<path id="&lt;Compound Path&gt;" fill-rule="evenodd" class="s0" d="m1165.7 536.9q-11.3 0-20.8-4-9.6-4-16.4-11-6.8-7-10.6-16.5-3.9-9.5-3.9-20.6 0-11 3.9-20.5 3.8-9.6 10.6-16.6 6.8-7 16.4-11 9.5-4 20.8-4 11.4 0 20.9 4 9.5 4 16.3 11 6.8 7 10.6 16.6 3.9 9.5 3.9 20.5 0 11.1-3.9 20.6-3.8 9.5-10.6 16.5-6.8 7-16.3 11-9.5 4-20.9 4zm0-12.6q8.6 0 15.4-3.1 6.9-3.2 11.8-8.5 4.9-5.3 7.5-12.5 2.7-7.2 2.7-15.4 0-8.1-2.7-15.3-2.6-7.2-7.5-12.5-4.9-5.4-11.8-8.5-6.8-3.2-15.4-3.2-8.5 0-15.4 3.2-6.8 3.1-11.7 8.5-5 5.3-7.6 12.5-2.7 7.2-2.7 15.3 0 8.2 2.7 15.4 2.6 7.2 7.6 12.5 4.9 5.3 11.7 8.5 6.9 3.1 15.4 3.1z"/>
			<path id="&lt;Compound Path&gt;" fill-rule="evenodd" class="s0" d="m1236.7 435.3h34.9q9.5 0 15.7 2.6 6.1 2.5 9.7 6.5 3.6 4 5 9 1.4 5 1.4 9.6 0 4.8-1.7 9.2-1.7 4.4-4.8 7.9-3.2 3.6-7.7 6.1-4.6 2.4-10.2 3l28.2 45.2h-16.8l-25.3-43.7h-14.9v43.7h-13.5zm13.5 43.7h17.6q3.9 0 7.8-0.6 3.8-0.7 6.8-2.3 3-1.7 4.9-4.9 1.8-3.1 1.8-8.2 0-5-1.8-8.2-1.9-3.1-4.9-4.8-3-1.7-6.8-2.3-3.9-0.6-7.8-0.6h-17.6z"/>
			<path id="&lt;Compound Path&gt;" class="s0" d="m1340.5 447.9h-31.9v-12.6h77.3v12.6h-32v86.5h-13.4z"/>
			<path id="&lt;Compound Path&gt;" class="s0" d="m533.1 640.7h20l31.5 75.1h0.6l31.2-75.1h20.1v99.1h-13.5v-81.5h-0.3l-33.4 81.5h-9l-33.5-81.5h-0.2v81.5h-13.5z"/>
			<path id="&lt;Compound Path&gt;" fill-rule="evenodd" class="s0" d="m692.1 640.7h12.1l42.5 99.1h-15.7l-10-24.5h-47.2l-9.8 24.5h-15.6zm24 62.9l-18.4-45.5h-0.3l-18.8 45.5z"/>
			<path id="&lt;Compound Path&gt;" fill-rule="evenodd" class="s0" d="m759.5 640.7h34.9q9.5 0 15.7 2.6 6.2 2.6 9.7 6.6 3.6 4 5 8.9 1.4 5 1.4 9.6 0 4.8-1.7 9.2-1.7 4.4-4.8 8-3.2 3.6-7.7 6-4.6 2.5-10.2 3l28.2 45.2h-16.8l-25.2-43.6h-15v43.6h-13.5zm13.5 43.7h17.6q4 0 7.8-0.6 3.9-0.6 6.9-2.3 3-1.7 4.8-4.8 1.8-3.2 1.8-8.2 0-5.1-1.8-8.2-1.8-3.2-4.8-4.9-3-1.6-6.9-2.3-3.8-0.6-7.8-0.6h-17.6z"/>
			<path id="&lt;Compound Path&gt;" fill-rule="evenodd" class="s0" d="m876.2 640.7h12.2l42.4 99.1h-15.7l-9.9-24.5h-47.2l-9.8 24.5h-15.7zm24.1 62.9l-18.5-45.5h-0.3l-18.7 45.5z"/>
			<path id="&lt;Compound Path&gt;" class="s0" d="m946.6 719.1q3.7 5.5 9.3 8.1 5.7 2.6 11.7 2.6 3.4 0 6.9-1.1 3.5-1 6.4-3.1 2.8-2.1 4.7-5.2 1.8-3.1 1.8-7.2 0-5.7-3.7-8.7-3.6-3-9-5.1-5.4-2-11.8-3.9-6.3-1.9-11.7-5.2-5.4-3.4-9-9.1-3.7-5.6-3.7-15.3 0-4.3 1.9-9.2 1.9-4.9 6-9 4-4.1 10.4-6.8 6.4-2.7 15.3-2.7 8.1 0 15.6 2.2 7.4 2.3 13 9.1l-10.9 10q-2.6-4-7.2-6.3-4.6-2.4-10.5-2.4-5.6 0-9.3 1.5-3.7 1.4-5.9 3.7-2.3 2.3-3.2 5-0.9 2.7-0.9 4.9 0 6.3 3.6 9.7 3.7 3.3 9.1 5.4 5.4 2.1 11.7 3.8 6.4 1.7 11.8 4.7 5.4 3 9 8.1 3.7 5.1 3.7 14.1 0 7.1-2.8 12.9-2.7 5.7-7.3 9.6-4.6 4-10.9 6.1-6.3 2.1-13.5 2.1-9.5 0-18-3.4-8.6-3.4-13.6-10.4z"/>
			<path id="&lt;Compound Path&gt;" class="s0" d="m1024.5 719.1q3.6 5.5 9.3 8.1 5.7 2.6 11.7 2.6 3.4 0 6.9-1.1 3.5-1 6.3-3.1 2.9-2.1 4.7-5.2 1.8-3.1 1.8-7.2 0-5.7-3.6-8.7-3.6-3-9-5.1-5.4-2-11.8-3.9-6.4-1.9-11.8-5.2-5.3-3.4-9-9.1-3.6-5.6-3.6-15.3 0-4.3 1.9-9.2 1.9-4.9 5.9-9 4.1-4.1 10.4-6.8 6.4-2.7 15.4-2.7 8.1 0 15.5 2.2 7.4 2.3 13 9.1l-10.9 10q-2.5-4-7.1-6.3-4.6-2.4-10.5-2.4-5.6 0-9.3 1.5-3.7 1.4-6 3.7-2.2 2.3-3.1 5-0.9 2.7-0.9 4.9 0 6.3 3.6 9.7 3.6 3.3 9 5.4 5.4 2.1 11.8 3.8 6.4 1.7 11.8 4.7 5.3 3 9 8.1 3.6 5.1 3.6 14.1 0 7.1-2.7 12.9-2.7 5.7-7.4 9.6-4.6 4-10.9 6.1-6.3 2.1-13.4 2.1-9.5 0-18.1-3.4-8.5-3.4-13.6-10.4z"/>
			<path id="&lt;Compound Path&gt;" class="s0" d="m1099.4 640.7h13.5v99.1h-13.5z"/>
		</g>
	</g>
</svg>