<?xml version="1.0" encoding="UTF-8"?>
<svg id="Layer_1" data-name="Layer 1" xmlns="http://www.w3.org/2000/svg" viewBox="0 0 156.29 34.82">
  <defs>
    <style>
      .cls-1 {
        fill: #4285f5;
      }

      .cls-2 {
        fill: #fbbc04;
      }

      .cls-3 {
        fill: #35a854;
      }

      .cls-4 {
        fill: #ea4335;
      }

      .cls-5 {
        fill: #f3c316;
      }
    </style>
  </defs>
  <g>
    <path class="cls-1" d="m24.87,24.68c.22-.32.45-.68.67-1.09.49-.92.78-1.79.95-2.51h-9.15v-6.8h16.04c.19.89.38,2.08.4,3.5,0,.99-.04,3.05-.81,5.52-.76,2.45-1.85,4.09-2.14,4.52-.19.28-.87,1.26-1.98,2.38-.13.13-.26.26-.4.39l-.07-.08-5.42-4.26h0c.68-.46,1.3-1.01,1.85-1.62l.06.04h0Z"/>
    <path class="cls-4" d="m28.64,4.31l-5.01,5.09c-1.74-1.41-3.93-2.25-6.32-2.25-4.51,0-8.33,3-9.67,7.16l-.09-.03L1.78,9.71C4.59,3.96,10.47,0,17.27,0c4.36,0,8.33,1.62,11.37,4.31h0Z"/>
    <path class="cls-3" d="m28.38,30.51l.07.08c-.96.91-1.87,1.58-2.6,2.05l-.06-.09c-2.52,1.44-5.43,2.27-8.53,2.27-6.8,0-12.68-3.96-15.49-9.71h0l5.79-4.54h0c1.25,4.3,5.15,7.44,9.76,7.44,2.08,0,4.02-.64,5.64-1.75l5.42,4.26h0Z"/>
    <path class="cls-2" d="m7.57,14.28l.09.03c-.33,1.03-.51,2.13-.51,3.27,0,1.04.15,2.04.42,2.99h0l-5.79,4.54h0c-1.14-2.32-1.78-4.93-1.78-7.7s.64-5.38,1.78-7.7c0,0,5.79,4.57,5.79,4.57Z"/>
  </g>
  <g>
    <path class="cls-5" d="m103.17,31.72l2.57-1.24h.8l2.57,1.24h0l-.35-3.45h0l1.86-2.21h0l-3.01-.8h0l-1.24-2.57h0l-1.24,2.57h0l-3.01.8h0l1.86,2.21h0l-.44,3.45h-.37Z"/>
    <path class="cls-5" d="m114.5,31.72l2.57-1.24h.8l2.57,1.24h0l-.35-3.45h0l1.86-2.21h0l-3.01-.8h0l-1.24-2.57h0l-1.24,2.57h0l-3.01.8h0l1.86,2.21h0l-.44,3.45h-.37Z"/>
    <path class="cls-5" d="m125.91,31.72l2.57-1.24h.8l2.57,1.24h0l-.35-3.45h0l1.86-2.21h0l-3.01-.8h0l-1.24-2.57h0l-1.24,2.57h0l-3.01.8h0l1.86,2.21h0l-.44,3.45h-.37Z"/>
    <path class="cls-5" d="m137.15,31.72l2.57-1.24h.8l2.57,1.24h0l-.35-3.45h0l1.86-2.21h0l-3.01-.8h0l-1.24-2.57h0l-1.24,2.57h0l-3.01.8h0l1.86,2.21h0l-.44,3.45h-.37Z"/>
    <path class="cls-5" d="m148.39,31.72l2.57-1.24h.8l2.57,1.24h0l-.35-3.45h0l1.86-2.21h0l-3.01-.8h0l-1.24-2.57h0l-1.24,2.57h0l-3.01.8h0l1.86,2.21h0l-.44,3.45h-.37Z"/>
  </g>
  <g>
    <path d="m45.65,29.16h-1.15v1.5h-1.15v-1.5h-3.54v-.8l3.19-4.25h1.33l-3.01,3.98h2.12v-1.33h1.15v1.33h1.15v1.06h-.09Z"/>
    <path d="m46.35,29.95c0-.44.35-.8.8-.8s.8.27.8.8-.35.8-.8.8-.8-.35-.8-.8Z"/>
    <path d="m58.04,22.78h1.06l-3.1,8.76h-1.06l3.1-8.76Z"/>
    <path d="m63.88,28.63c0,1.15-.8,2.12-2.57,2.12s-1.86-.27-2.48-.8l.53-.97c.44.35,1.15.62,1.95.62s1.42-.35,1.42-.97-.44-.97-1.77-.97h-1.59l.35-3.54h3.81v.97h-2.83l-.18,1.5h.62c1.95,0,2.74.8,2.74,2.04h0Z"/>
    <path d="m71.04,30.66l-1.33-1.95h-1.77v1.95h-1.24v-6.55h2.65c1.68,0,2.74.88,2.74,2.3s-.53,1.68-1.42,2.04l1.5,2.12h-1.33l.18.09h.02Zm-1.68-5.58h-1.42v2.57h1.42c1.06,0,1.59-.44,1.59-1.33s-.53-1.33-1.59-1.33h0v.09Z"/>
    <path d="m77.59,27.74v2.92h-1.06v-.62c-.27.44-.8.71-1.59.71-1.15,0-1.86-.62-1.86-1.5s.53-1.5,2.04-1.5h1.33c0-.8-.44-1.15-1.24-1.15s-1.15.18-1.5.53l-.44-.88c.53-.44,1.33-.62,2.12-.62,1.42,0,2.3.71,2.3,2.12h-.1Zm-1.15,1.33v-.62h-1.24c-.8,0-.97.27-.97.62s.35.71.97.71,1.06-.27,1.24-.8v.09Z"/>
    <path d="m82.11,30.4c-.27.27-.71.35-1.15.35-1.06,0-1.68-.62-1.68-1.68v-2.39h-.8v-.97h.8v-1.15h1.15v1.15h1.33v.97h-1.33v2.39c0,.44.27.71.71.71s.44,0,.62-.18l.35.8h0Z"/>
    <path d="m82.9,24.11c0-.35.35-.71.71-.71s.71.27.71.71-.27.71-.71.71-.71-.27-.71-.71Zm.09,1.5h1.15v4.96h-1.15v-4.96Z"/>
    <path d="m90.6,27.74v2.83h-1.15v-2.74c0-.88-.44-1.33-1.15-1.33s-1.42.53-1.42,1.5v2.48h-1.15v-4.96h1.15v.62c.35-.44.97-.71,1.68-.71,1.15,0,2.12.71,2.12,2.21h0l-.09.09h0Z"/>
    <path d="m97.15,25.62v4.25c0,1.77-.97,2.65-2.65,2.65s-1.86-.27-2.39-.71l.53-.88c.44.35,1.15.62,1.86.62,1.06,0,1.59-.53,1.59-1.5v-.27c-.44.44-.97.62-1.68.62-1.42,0-2.48-.97-2.48-2.39s1.06-2.39,2.48-2.39,1.33.27,1.77.71v-.62h1.15s-.18-.09-.18-.09Zm-1.15,2.39c0-.8-.62-1.42-1.5-1.42s-1.5.53-1.5,1.42.62,1.42,1.5,1.42,1.5-.62,1.5-1.42Z"/>
    <path d="m54.14,28.63c0,1.15-.8,2.12-2.57,2.12s-1.86-.27-2.48-.8l.53-.97c.44.35,1.15.62,1.95.62s1.42-.35,1.42-.97-.44-.97-1.77-.97h-1.59l.35-3.54h3.81v.97h-2.83l-.18,1.5h.62c1.95,0,2.74.8,2.74,2.04h0Z"/>
  </g>
  <g>
    <path d="m44.04,15.42c-.81,0-1.61-.11-2.38-.35-.77-.23-1.42-.56-1.95-.99l.92-1.66c.41.34.91.61,1.51.82s1.22.31,1.87.31c.77,0,1.37-.16,1.8-.47s.64-.74.64-1.28-.2-.94-.6-1.25-1.03-.46-1.9-.46h-1.05v-1.47l2.6-3.11h-5.22v-1.8h7.86v1.43l-2.8,3.33c1.09.14,1.9.51,2.45,1.11s.82,1.33.82,2.2c0,.65-.17,1.25-.49,1.8-.33.55-.83.99-1.51,1.33-.67.33-1.53.5-2.56.5h0Z"/>
    <path d="m55.72,15.42c-.91,0-1.73-.23-2.46-.69s-1.3-1.13-1.72-2.02-.63-1.96-.63-3.22.21-2.34.63-3.22c.42-.88,1-1.56,1.72-2.02s1.54-.69,2.46-.69,1.75.23,2.47.69,1.3,1.13,1.72,2.02c.42.88.63,1.96.63,3.22s-.21,2.34-.63,3.22c-.42.88-1,1.56-1.72,2.02-.72.46-1.55.69-2.47.69Zm0-1.86c.79,0,1.43-.33,1.93-.99.49-.66.74-1.69.74-3.08s-.25-2.42-.74-3.08-1.14-.99-1.93-.99-1.42.33-1.91.99-.74,1.69-.74,3.08.25,2.42.74,3.08,1.13.99,1.91.99Z"/>
    <path d="m66.81,15.42c-.91,0-1.73-.23-2.46-.69s-1.3-1.13-1.72-2.02-.63-1.96-.63-3.22.21-2.34.63-3.22c.42-.88,1-1.56,1.72-2.02s1.54-.69,2.46-.69,1.75.23,2.47.69,1.3,1.13,1.72,2.02c.42.88.63,1.96.63,3.22s-.21,2.34-.63,3.22-1,1.56-1.72,2.02c-.72.46-1.55.69-2.47.69Zm0-1.86c.79,0,1.43-.33,1.93-.99.49-.66.74-1.69.74-3.08s-.25-2.42-.74-3.08-1.14-.99-1.93-.99-1.42.33-1.91.99c-.49.66-.74,1.69-.74,3.08s.25,2.42.74,3.08,1.13.99,1.91.99Z"/>
    <path d="m76.43,13.19v-2.88h-2.92v-1.65h2.92v-2.88h1.76v2.88h2.92v1.65h-2.92v2.88h-1.76Z"/>
    <path d="m88.25,15.25V3.72h4.73c1.54,0,2.74.37,3.62,1.1s1.31,1.73,1.31,3.01c0,.88-.21,1.63-.64,2.25s-1.03,1.09-1.81,1.41l2.65,3.77h-2.31l-2.36-3.38c-.14.01-.29.02-.44.02h-2.6v3.36h-2.15Zm2.14-5.12h2.5c.94,0,1.65-.2,2.13-.61.48-.41.72-.97.72-1.7s-.24-1.29-.72-1.69-1.19-.6-2.13-.6h-2.5s0,4.6,0,4.6Z"/>
    <path d="m104.23,15.37c-.98,0-1.83-.19-2.56-.58s-1.3-.92-1.7-1.6c-.4-.68-.6-1.45-.6-2.33s.19-1.66.58-2.33.93-1.2,1.61-1.59c.69-.38,1.47-.58,2.35-.58s1.62.19,2.29.56,1.2.9,1.58,1.59c.39.69.58,1.49.58,2.4v.3c0,.11-.01.21-.02.31h-6.9c.12.64.43,1.15.94,1.53.5.39,1.14.58,1.91.58.98,0,1.77-.32,2.39-.96l1.1,1.27c-.81.96-1.99,1.43-3.54,1.43h-.01Zm-2.82-5.22h4.99c-.09-.64-.36-1.15-.81-1.55s-1.01-.59-1.68-.59-1.23.19-1.68.59c-.45.39-.72.91-.82,1.56h0Z"/>
    <path d="m112.52,15.25l-3.77-8.8h2.14l2.73,6.52,2.82-6.52h1.98l-3.77,8.8h-2.13Z"/>
    <path d="m120.74,5.01c-.38,0-.7-.12-.95-.36s-.37-.53-.37-.87.12-.63.37-.87.56-.36.95-.36.7.11.95.34.37.51.37.85c0,.36-.12.67-.37.91s-.56.37-.95.37h0Zm-1.04,10.25V6.46h2.06v8.8h-2.06Z"/>
    <path d="m128.6,15.37c-.98,0-1.83-.19-2.56-.58s-1.3-.92-1.7-1.6c-.4-.68-.6-1.45-.6-2.33s.2-1.66.59-2.33.93-1.2,1.61-1.59c.69-.38,1.47-.58,2.35-.58s1.62.19,2.29.56,1.2.9,1.58,1.59.58,1.49.58,2.4v.3c0,.11,0,.21-.02.31h-6.9c.12.64.43,1.15.94,1.53.51.39,1.14.58,1.91.58.98,0,1.77-.32,2.39-.96l1.1,1.27c-.81.96-1.99,1.43-3.54,1.43h-.02Zm-2.82-5.22h4.99c-.09-.64-.36-1.15-.81-1.55s-1.01-.59-1.68-.59-1.23.19-1.68.59c-.45.39-.73.91-.82,1.56h0Z"/>
    <path d="m136.49,15.25l-3.23-8.8h1.94l2.32,6.49,2.42-6.49h1.73l2.37,6.51,2.39-6.51h1.83l-3.24,8.8h-1.98l-2.27-6.08-2.31,6.08h-1.98,0Z"/>
    <path d="m152.29,15.37c-.74,0-1.44-.09-2.12-.28s-1.21-.42-1.61-.71l.79-1.57c.38.26.85.48,1.41.63s1.11.24,1.66.24c.66,0,1.13-.09,1.42-.26.29-.18.43-.41.43-.71s-.13-.49-.4-.62c-.26-.13-.6-.22-1.01-.29-.41-.07-.85-.14-1.31-.21-.46-.08-.9-.2-1.31-.36s-.75-.41-1.01-.75-.4-.79-.4-1.38c0-.83.35-1.5,1.05-2s1.64-.75,2.82-.75c.58,0,1.18.06,1.79.2.61.13,1.11.32,1.51.56l-.79,1.57c-.42-.24-.84-.41-1.26-.51s-.84-.15-1.26-.15c-.63,0-1.09.09-1.39.28s-.45.42-.45.71.13.52.4.66.6.25,1.01.31c.41.07.85.14,1.31.22.46.08.9.21,1.31.37s.75.41,1.01.73.4.77.4,1.34c0,.82-.36,1.48-1.07,1.98s-1.69.74-2.91.74h-.02Z"/>
  </g>
</svg>