<svg width="146" height="22" viewBox="0 0 146 22" fill="none" xmlns="http://www.w3.org/2000/svg">
<g clip-path="url(#clip0_9631_34365)">
<path d="M8.65903 8.14251V10.2588H13.7382C13.5794 11.4757 13.1562 12.3222 12.5742 12.9571C11.8335 13.6978 10.6695 14.5443 8.60612 14.5443C5.48458 14.5443 2.99792 12.0048 2.99792 8.83031C2.99792 5.65586 5.48458 3.16921 8.65903 3.16921C10.3521 3.16921 11.5689 3.85701 12.5213 4.70353L14.0027 3.22212C12.7329 1.95233 11.0399 1 8.65903 1C4.37352 1 0.7229 4.5448 0.7229 8.83031C0.7229 13.1158 4.32061 16.6606 8.65903 16.6606C10.987 16.6606 12.7329 15.9199 14.1085 14.4914C15.537 13.0629 15.9603 11.1053 15.9603 9.4652C15.9603 8.98903 15.9074 8.51286 15.8545 8.14251H8.65903Z" fill="#222E26"/>
<path d="M22.3089 6.39844C19.5048 6.39844 17.2297 8.51474 17.2297 11.4776C17.2297 14.3875 19.5048 16.5567 22.3089 16.5567C25.113 16.5567 27.388 14.4404 27.388 11.4776C27.388 8.51474 25.113 6.39844 22.3089 6.39844ZM22.3089 14.4933C20.7745 14.4933 19.4519 13.2235 19.4519 11.4247C19.4519 9.6258 20.7745 8.35602 22.3089 8.35602C23.8432 8.35602 25.1659 9.6258 25.1659 11.4247C25.1659 13.2764 23.8432 14.4933 22.3089 14.4933Z" fill="#222E26"/>
<path d="M47.1221 7.5095H47.0692C46.5931 6.92751 45.6407 6.39844 44.4239 6.39844C41.8843 6.39844 39.7151 8.62055 39.7151 11.4776C39.7151 14.3346 41.9372 16.5567 44.4239 16.5567C45.6407 16.5567 46.5931 16.0276 47.0692 15.3927H47.1221V16.0805C47.1221 18.0381 46.064 19.0433 44.4239 19.0433C43.0483 19.0433 42.2017 18.091 41.8843 17.2445L39.9796 18.0381C40.5616 19.3608 41.9901 21.0009 44.4768 21.0009C47.0692 21.0009 49.2913 19.4666 49.2913 15.7102V6.66298H47.175V7.5095H47.1221ZM44.5826 14.4933C43.0483 14.4933 41.8843 13.1706 41.8843 11.4247C41.8843 9.6258 43.0483 8.35602 44.5826 8.35602C46.1169 8.35602 47.2809 9.6787 47.2809 11.4247C47.2809 13.2235 46.1169 14.4933 44.5826 14.4933Z" fill="#222E26"/>
<path d="M33.6311 6.39844C30.827 6.39844 28.552 8.51474 28.552 11.4776C28.552 14.3875 30.827 16.5567 33.6311 16.5567C36.4352 16.5567 38.7102 14.4404 38.7102 11.4776C38.6573 8.51474 36.3823 6.39844 33.6311 6.39844ZM33.6311 14.4933C32.0968 14.4933 30.7741 13.2235 30.7741 11.4247C30.7741 9.6258 32.0968 8.35602 33.6311 8.35602C35.1654 8.35602 36.4881 9.6258 36.4881 11.4247C36.4881 13.2764 35.1654 14.4933 33.6311 14.4933Z" fill="#222E26"/>
<path d="M50.9849 1.20703H53.1541V16.4973H50.9849V1.20703Z" fill="#222E26"/>
<path d="M59.8732 14.4954C58.7622 14.4954 57.9685 13.9663 57.4395 12.9611L64.2116 10.157L64 9.57501C63.5767 8.46396 62.307 6.34766 59.6616 6.34766C57.0691 6.34766 54.8999 8.41105 54.8999 11.4268C54.8999 14.2838 57.0162 16.5059 59.9261 16.5059C62.254 16.5059 63.5767 15.0774 64.1058 14.2838L62.4128 13.1198C61.7779 13.9663 61.0372 14.4954 59.8732 14.4954ZM59.7145 8.30523C60.6139 8.30523 61.3546 8.7814 61.6192 9.41629L57.0691 11.321C57.0691 9.15176 58.6034 8.30523 59.7145 8.30523Z" fill="#222E26"/>
<path d="M73.9892 3.76476V8.58828H76.9514C77.6625 8.58828 78.3735 8.35294 78.8474 7.88242C79.3214 7.41176 79.6769 6.82351 79.6769 6.11766C79.6769 5.5294 79.4399 4.94115 78.9659 4.47062C78.4919 3.99996 77.8995 3.76476 77.1884 3.76476H73.9892ZM73.9892 15.6471H72.2117V2H77.0699C78.255 2 79.3214 2.35293 80.2693 3.17651C81.0989 3.99996 81.5728 4.94115 81.5728 6.11766C81.5728 7.05884 81.2174 7.88242 80.6248 8.58828C80.0323 9.29413 79.2029 9.76478 78.1365 9.99998L82.1653 15.5295V15.6471H80.0323L76.122 10.1177H74.1077V15.6471H73.9892ZM87.616 16C86.1941 16 85.0092 15.5295 84.0611 14.5883C83.1132 13.6471 82.6393 12.4706 82.6393 11.0589C82.6393 9.64705 83.1132 8.47055 83.9427 7.52937C84.8907 6.58831 85.9571 6.11766 87.379 6.11766C88.801 6.11766 89.9859 6.58831 90.8154 7.41177C91.6449 8.35295 92.1189 9.52946 92.1189 11.1765V11.4118H84.4167C84.4167 12.353 84.7722 13.0589 85.3647 13.6471C85.9571 14.2354 86.6681 14.4706 87.616 14.4706C88.801 14.4706 89.749 13.8823 90.3414 12.8235L92.0004 13.5294C91.5265 14.353 90.9339 14.9412 90.2229 15.4117C89.512 15.7647 88.5641 16 87.616 16ZM84.6537 9.88238H90.2229C90.2229 9.17653 89.8675 8.70587 89.3935 8.23535C88.9195 7.76469 88.2086 7.64709 87.379 7.64709C86.6681 7.64709 86.0756 7.88242 85.6017 8.23535C85.1277 8.70587 84.8907 9.17653 84.6537 9.88238ZM98.3992 15.6471H96.6217L92.7114 6.35298H94.7258L97.5696 13.6471L100.532 6.35298H102.428L98.3992 15.6471ZM105.983 3.17651C105.983 3.52944 105.864 3.76476 105.627 3.99996C105.39 4.23529 105.035 4.35302 104.679 4.35302C104.324 4.35302 103.968 4.23529 103.731 3.99996C103.494 3.76476 103.376 3.41184 103.376 3.17651C103.376 2.94118 103.494 2.58826 103.731 2.35293C103.968 2.11773 104.324 2 104.679 2C105.035 2 105.39 2.11773 105.627 2.35293C105.864 2.58826 105.983 2.82358 105.983 3.17651ZM105.627 6.35298V15.6471H103.85V6.35298H105.627ZM112.263 16C110.841 16 109.656 15.5295 108.708 14.5883C107.76 13.6471 107.286 12.4706 107.286 11.0589C107.286 9.64705 107.76 8.47055 108.59 7.52937C109.538 6.58831 110.604 6.11766 112.026 6.11766C113.448 6.11766 114.633 6.58831 115.463 7.41177C116.292 8.35295 116.766 9.52946 116.766 11.1765V11.4118H109.064C109.064 12.353 109.419 13.0589 110.012 13.6471C110.604 14.2354 111.315 14.4706 112.263 14.4706C113.448 14.4706 114.396 13.8823 114.988 12.8235L116.647 13.5294C116.173 14.353 115.581 14.9412 114.87 15.4117C114.159 15.7647 113.33 16 112.263 16ZM109.419 9.88238H114.988C114.988 9.17653 114.633 8.70587 114.159 8.23535C113.685 7.76469 112.974 7.64709 112.145 7.64709C111.434 7.64709 110.841 7.88242 110.367 8.23535C109.893 8.70587 109.538 9.17653 109.419 9.88238ZM132.289 6.35298L129.089 15.6471H127.193L124.705 8.47054L122.335 15.6471H120.439L117.24 6.35298H119.136L121.269 13.4118L123.639 6.35298H125.535L127.904 13.4118L130.037 6.35298H132.289ZM140.939 13.0589C140.939 13.8823 140.583 14.5883 139.873 15.1765C139.161 15.7647 138.095 16 137.029 16C136.081 16 135.133 15.7647 134.422 15.2941C133.711 14.8235 133.118 14.1176 132.881 13.4118L134.54 12.7059C134.777 13.2942 135.133 13.6471 135.607 14C136.081 14.353 136.555 14.4706 137.147 14.4706C137.74 14.4706 138.214 14.353 138.569 14.1176C138.924 13.8823 139.161 13.6471 139.161 13.2942C139.161 12.7059 138.687 12.2353 137.74 12.0001L136.081 11.647C134.185 11.1765 133.237 10.3529 133.237 9.0588C133.237 8.23535 133.592 7.52949 134.303 7.05884C135.014 6.58831 135.962 6.23526 137.029 6.23526C137.858 6.23526 138.687 6.47058 139.399 6.82351C140.11 7.17644 140.583 7.76469 140.82 8.35295L139.161 9.0588C138.924 8.70587 138.688 8.35295 138.214 8.11762C137.74 7.88242 137.384 7.76469 136.792 7.76469C136.318 7.76469 135.844 7.88242 135.488 8.11762C135.133 8.35295 134.896 8.58827 134.896 8.9412C134.896 9.52945 135.37 9.88238 136.436 10.1177L137.858 10.4706C139.991 10.7058 140.939 11.647 140.939 13.0589Z" fill="#222E26"/>
</g>
<defs>
<clipPath id="clip0_9631_34365">
<rect width="243.554" height="22.0004" fill="white" transform="translate(0.7229)"/>
</clipPath>
</defs>
</svg>
